<svg width="34" height="34" viewBox="0 0 34 34" fill="none" xmlns="http://www.w3.org/2000/svg">
<path d="M0 33.2695C0 22.4254 0 11.5746 0 0.730469C0.159375 0.405078 0.398438 0.159375 0.730469 0C11.5746 0 22.4254 0 33.2695 0C33.5949 0.159375 33.8406 0.398438 34 0.730469C34 11.5746 34 22.4254 34 33.2695C33.8406 33.5949 33.5949 33.8406 33.2695 34C22.4254 34 11.5746 34 0.730469 34C0.405078 33.8406 0.159375 33.5949 0 33.2695ZM2.00547 31.9812C6.68047 31.9812 11.3355 31.9812 15.9773 31.9812C15.9773 27.3062 15.9773 22.6578 15.9773 18.0094C11.309 18.0094 6.66719 18.0094 2.00547 18.0094C2.00547 22.6711 2.00547 27.3129 2.00547 31.9812ZM2.01875 2.00547C2.01875 6.68047 2.01875 11.3355 2.01875 15.9773C6.69375 15.9773 11.3422 15.9773 15.9906 15.9773C15.9906 11.309 15.9906 6.66719 15.9906 2.00547C11.3289 2.00547 6.68047 2.00547 2.01875 2.00547ZM31.9879 15.9906C31.9879 11.309 31.9879 6.66055 31.9879 2.01875C27.3129 2.01875 22.6645 2.01875 18.016 2.01875C18.016 6.68711 18.016 11.3289 18.016 15.9906C22.6777 15.9906 27.3195 15.9906 31.9879 15.9906ZM17.9961 31.9812C22.691 31.9812 27.3395 31.9812 32.0078 31.9812C32.0078 30.5336 32.0012 29.1059 32.0145 27.6781C32.0145 27.459 31.9547 27.3129 31.7953 27.1602C30.4738 25.8652 29.159 24.5703 27.8574 23.2621C27.5719 22.9766 27.3129 22.6578 27.0871 22.3988C26.1641 23.3285 25.3141 24.1785 24.4574 25.0484C24.8227 25.407 25.2211 25.8055 25.6262 26.2039C25.8918 26.4695 26.0312 26.7883 25.9449 27.1668C25.8586 27.5387 25.6395 27.7977 25.2609 27.9105C24.8559 28.0367 24.5172 27.9172 24.2316 27.6316C23.2355 26.6422 22.2461 25.6461 21.25 24.65C21.1703 24.5703 21.0773 24.4906 20.9844 24.3977C20.0016 25.3738 19.052 26.3301 18.0957 27.2863C18.0426 27.3395 18.0027 27.4391 18.0027 27.5187C17.9961 28.9996 17.9961 30.4805 17.9961 31.9812ZM23.0164 23.6273C23.1227 23.4746 23.1758 23.3617 23.2621 23.2754C24.2051 22.3258 25.1547 21.3762 26.0977 20.4332C26.6953 19.8355 27.2133 19.8289 27.8109 20.4266C29.1258 21.7281 30.4406 23.0297 31.7555 24.3246C31.8219 24.391 31.8949 24.4441 31.9879 24.5305C31.9879 22.3324 31.9879 20.1809 31.9879 18.016C27.3195 18.016 22.6711 18.016 18.016 18.016C18.016 20.1809 18.016 22.3324 18.016 24.5371C18.7664 23.7801 19.477 23.0695 20.1875 22.359C20.6922 21.8543 21.25 21.8543 21.7613 22.359C22.1598 22.7375 22.5449 23.1426 23.0164 23.6273Z" fill="#4F5763"/>
<path d="M10.0273 22.6113C10.0273 24.1187 10.0406 25.5664 10.0207 27.014C10.0008 28.5812 8.73905 29.8828 7.19843 29.9359C5.94999 29.9758 4.98046 29.4379 4.40272 28.3289C3.82499 27.2199 3.9246 26.1109 4.70155 25.1215C5.47186 24.1387 6.51444 23.8 7.74296 24.0457C7.82928 24.0656 7.91561 24.0855 8.04178 24.1187C8.04178 23.9793 8.04178 23.8598 8.04178 23.7402C8.04178 22.8305 8.03514 21.9273 8.04178 21.0176C8.04843 20.214 8.77889 19.7492 9.49608 20.1012C10.8176 20.7453 12.1324 21.4027 13.4406 22.0668C13.9719 22.339 14.1578 22.9168 13.9055 23.4148C13.6531 23.9062 13.0754 24.0922 12.5441 23.8332C11.8402 23.4879 11.143 23.1359 10.439 22.784C10.3195 22.7375 10.2 22.6844 10.0273 22.6113ZM7.05233 25.9648C6.51444 25.9582 6.05624 26.4031 6.0496 26.941C6.03632 27.4789 6.48124 27.9371 7.01913 27.957C7.5703 27.9703 8.04178 27.5121 8.04178 26.9676C8.03514 26.423 7.59022 25.9715 7.05233 25.9648Z" fill="#4F5763"/>
<path d="M6.04297 9.03791C6.04297 7.75627 6.04961 6.47464 6.04297 5.19299C6.04297 4.74807 6.17578 4.38948 6.5875 4.17034C6.98594 3.95784 7.35117 4.0508 7.70977 4.28987C9.62227 5.56487 11.5348 6.83987 13.4473 8.11487C14.2176 8.63284 14.2242 9.42971 13.4605 9.94104C11.5414 11.2293 9.61563 12.5043 7.69648 13.786C7.33789 14.025 6.96602 14.1047 6.57422 13.8856C6.18906 13.6664 6.04961 13.3211 6.04961 12.8895C6.04961 11.6012 6.04297 10.3196 6.04297 9.03791ZM8.06172 6.91956C8.06172 8.34729 8.06172 9.71526 8.06172 11.1297C9.12422 10.4192 10.1469 9.73518 11.216 9.02463C10.1469 8.31409 9.12422 7.6301 8.06172 6.91956Z" fill="#4F5763"/>
<path d="M29.9492 9.05117C29.9492 10.3262 29.9492 11.5945 29.9492 12.8695C29.9492 13.8191 29.232 14.2641 28.3754 13.8391C27.2598 13.2812 26.1441 12.7168 25.0219 12.1723C24.8426 12.0859 24.6234 12.0328 24.4242 12.0328C23.3285 12.0195 22.2328 12.0262 21.1371 12.0262C20.3801 12.0262 19.9883 11.641 19.9816 10.8906C19.9816 9.64883 19.9816 8.41367 19.9816 7.17188C19.9816 6.44141 20.3801 6.04961 21.1105 6.04961C22.2262 6.04961 23.3418 6.05625 24.4641 6.04297C24.6301 6.04297 24.816 5.99649 24.9687 5.92344C26.0976 5.37227 27.2199 4.80117 28.3488 4.24336C29.2387 3.79844 29.9426 4.24336 29.9426 5.24609C29.9492 6.50781 29.9492 7.77617 29.9492 9.05117ZM27.9437 11.3887C27.9437 9.80156 27.9437 8.26094 27.9437 6.66719C27.293 6.99258 26.6754 7.29805 26.0644 7.6168C26.0113 7.64336 25.9715 7.75625 25.9715 7.83594C25.9648 8.63281 25.9648 9.42969 25.9715 10.2199C25.9715 10.293 26.0047 10.4125 26.0578 10.4391C26.6687 10.7578 27.293 11.0633 27.9437 11.3887ZM23.9527 10.0074C23.9527 9.33672 23.9527 8.69258 23.9527 8.05508C23.282 8.05508 22.6379 8.05508 22.0004 8.05508C22.0004 8.71914 22.0004 9.35664 22.0004 10.0074C22.6512 10.0074 23.2887 10.0074 23.9527 10.0074Z" fill="#4F5763"/>
</svg>
