<svg width="35" height="35" viewBox="0 0 35 35" fill="none" xmlns="http://www.w3.org/2000/svg">
<path d="M17.5141 34.9891L16.6804 35L16.4432 34.8914C15.6285 34.5265 15.2363 33.5486 15.6641 32.7732C15.8657 32.4083 15.9022 32.0553 15.8976 31.6685C15.8922 31.144 15.8976 30.6194 15.8976 30.0949V29.6041C15.8976 29.5632 15.8814 29.524 15.8525 29.4951C15.8236 29.4662 15.7844 29.4499 15.7435 29.4499H0.156906C0.116018 29.4499 0.0768038 29.4337 0.0478915 29.4048C0.0189792 29.3759 0.00273662 29.3366 0.00273662 29.2958V22.443C0.00273662 22.4021 0.0189792 22.3629 0.0478915 22.334C0.0768038 22.3051 0.116018 22.2888 0.156906 22.2888H15.7161C15.7364 22.2888 15.7566 22.2848 15.7753 22.277C15.7941 22.2692 15.8111 22.2578 15.8254 22.2433C15.8398 22.2289 15.8511 22.2118 15.8588 22.193C15.8665 22.1742 15.8704 22.1541 15.8703 22.1337V20.0474C15.8704 20.0271 15.8665 20.007 15.8588 19.9882C15.8511 19.9693 15.8398 19.9522 15.8254 19.9378C15.8111 19.9234 15.7941 19.912 15.7753 19.9042C15.7566 19.8964 15.7364 19.8924 15.7161 19.8924H0.154169C0.113281 19.8924 0.0740671 19.8761 0.0451549 19.8472C0.0162426 19.8183 0 19.7791 0 19.7382V12.8763C0 12.8354 0.0162426 12.7962 0.0451549 12.7673C0.0740671 12.7384 0.113281 12.7221 0.154169 12.7221H15.7426C15.7837 12.7221 15.8231 12.7058 15.8522 12.6767C15.8813 12.6476 15.8976 12.6082 15.8976 12.5671C15.8976 11.9823 15.8858 11.4286 15.9031 10.8758C15.9133 10.7418 15.8925 10.6073 15.8424 10.4826C15.7922 10.358 15.7141 10.2465 15.6139 10.1569C14.7318 9.29849 13.8734 8.41452 12.9931 7.55428C12.8969 7.46977 12.8209 7.36476 12.7707 7.24698C12.7205 7.1292 12.6973 7.00166 12.703 6.87375C12.7157 4.63419 12.7103 2.39464 12.7103 0.154169C12.7103 0.113281 12.7265 0.0740678 12.7554 0.0451555C12.7843 0.0162433 12.8236 0 12.8644 0H21.3136C21.3545 0 21.3937 0.0162433 21.4226 0.0451555C21.4516 0.0740678 21.4678 0.113281 21.4678 0.154169C21.4678 2.40558 21.4678 4.657 21.4742 6.90476C21.4789 7.02171 21.4576 7.13825 21.4118 7.24599C21.3661 7.35372 21.297 7.44998 21.2096 7.52782C20.2974 8.42273 19.3988 9.32859 18.4984 10.2344C18.4136 10.3202 18.2959 10.4306 18.2941 10.5309C18.2768 11.2069 18.2832 11.8829 18.2841 12.588C18.2841 12.6289 18.3003 12.6681 18.3292 12.697C18.3581 12.726 18.3974 12.7422 18.4382 12.7422H29.2438C29.2847 12.7424 29.3239 12.7589 29.3528 12.7879C29.3817 12.817 29.3979 12.8563 29.3979 12.8973V19.7546C29.398 19.7749 29.3941 19.7951 29.3864 19.8139C29.3788 19.8327 29.3674 19.8498 29.3531 19.8642C29.3388 19.8786 29.3217 19.8901 29.303 19.8979C29.2842 19.9057 29.2641 19.9097 29.2438 19.9097H18.4674C18.4263 19.9097 18.3869 19.926 18.3578 19.9551C18.3287 19.9842 18.3124 20.0236 18.3124 20.0648V22.1492C18.3124 22.1696 18.3164 22.1897 18.3242 22.2085C18.332 22.2272 18.3434 22.2443 18.3578 22.2586C18.3722 22.2729 18.3893 22.2842 18.4082 22.2919C18.427 22.2996 18.4471 22.3035 18.4674 22.3034H34.023C34.0641 22.3034 34.1036 22.3197 34.1326 22.3488C34.1617 22.3779 34.1781 22.4174 34.1781 22.4585V29.3149C34.1778 29.3559 34.1614 29.3951 34.1323 29.424C34.1033 29.4529 34.064 29.4691 34.023 29.4691H18.4373C18.4005 29.4685 18.3648 29.4813 18.3367 29.5051C18.3087 29.529 18.2903 29.5622 18.285 29.5986C18.2845 29.6032 18.2845 29.6077 18.285 29.6123C18.285 30.4196 18.274 31.227 18.285 32.0343C18.2893 32.2337 18.3445 32.4288 18.4455 32.6008C18.5664 32.7993 18.6424 33.0219 18.6682 33.2528C18.694 33.4838 18.669 33.7176 18.5949 33.9379C18.5209 34.1582 18.3996 34.3596 18.2395 34.5281C18.0795 34.6966 17.8845 34.8281 17.6683 34.9133C17.6163 34.938 17.5671 34.9617 17.5141 34.9891ZM15.7188 15.1441H2.54789C2.50692 15.1444 2.46771 15.1608 2.43882 15.1899C2.40994 15.2189 2.39372 15.2582 2.39372 15.2992V17.3472C2.39372 17.3881 2.40997 17.4273 2.43888 17.4562C2.46779 17.4851 2.507 17.5014 2.54789 17.5014H15.7188C15.7598 17.5014 15.7991 17.4852 15.8282 17.4563C15.8572 17.4274 15.8737 17.3882 15.8739 17.3472V15.2992C15.8739 15.2581 15.8576 15.2186 15.8285 15.1896C15.7994 15.1605 15.76 15.1441 15.7188 15.1441ZM15.8712 26.9057V24.8668C15.871 24.8258 15.8545 24.7866 15.8254 24.7577C15.7964 24.7289 15.7571 24.7126 15.7161 24.7126H2.54424C2.50336 24.7126 2.46414 24.7289 2.43523 24.7578C2.40632 24.7867 2.39008 24.8259 2.39008 24.8668V26.9057C2.39007 26.9466 2.40629 26.986 2.43517 27.015C2.46406 27.0441 2.50327 27.0605 2.54424 27.0608H15.7161C15.7365 27.0608 15.7566 27.0567 15.7755 27.049C15.7943 27.0412 15.8114 27.0297 15.8258 27.0153C15.8402 27.0009 15.8516 26.9838 15.8594 26.965C15.8672 26.9462 15.8712 26.926 15.8712 26.9057ZM31.6347 24.7008H18.4629C18.4219 24.7008 18.3826 24.717 18.3535 24.7459C18.3245 24.7748 18.308 24.814 18.3078 24.855V26.9039C18.3078 26.9242 18.3118 26.9443 18.3196 26.9631C18.3274 26.9818 18.3389 26.9989 18.3533 27.0132C18.3677 27.0275 18.3848 27.0389 18.4036 27.0465C18.4224 27.0542 18.4426 27.0581 18.4629 27.058H31.6347C31.6756 27.058 31.7148 27.0418 31.7438 27.0129C31.7727 26.984 31.7889 26.9447 31.7889 26.9039V24.855C31.7889 24.8141 31.7727 24.7749 31.7438 24.7459C31.7148 24.717 31.6756 24.7008 31.6347 24.7008ZM26.861 15.1396H18.4574C18.4163 15.1396 18.3768 15.1559 18.3477 15.185C18.3187 15.2141 18.3023 15.2535 18.3023 15.2947V17.3363C18.3023 17.3774 18.3187 17.4168 18.3477 17.4459C18.3768 17.475 18.4163 17.4913 18.4574 17.4913H26.861C26.9021 17.4913 26.9416 17.475 26.9706 17.4459C26.9997 17.4168 27.0161 17.3774 27.0161 17.3363V15.2947C27.0161 15.2743 27.012 15.2541 27.0043 15.2353C26.9965 15.2165 26.985 15.1994 26.9706 15.185C26.9562 15.1706 26.9391 15.1592 26.9203 15.1514C26.9015 15.1436 26.8813 15.1396 26.861 15.1396ZM15.2554 2.4065C15.2145 2.40674 15.1752 2.42318 15.1464 2.45224C15.1175 2.4813 15.1013 2.5206 15.1013 2.56158C15.1013 3.77668 15.1013 4.96625 15.1013 6.15581C15.1025 6.22283 15.127 6.28732 15.1706 6.33826C15.7654 6.94034 16.3647 7.53786 16.9832 8.15545C16.9975 8.1699 17.0146 8.18137 17.0334 8.1892C17.0522 8.19703 17.0723 8.20106 17.0927 8.20106C17.113 8.20106 17.1332 8.19703 17.152 8.1892C17.1708 8.18137 17.1878 8.1699 17.2022 8.15545C17.8161 7.53968 18.41 6.94946 18.9901 6.34556C19.0613 6.27167 19.0686 6.11659 19.0695 5.99891C19.0759 5.05291 19.0695 4.10691 19.0695 3.16092V2.56158C19.0693 2.5206 19.0528 2.48139 19.0238 2.45251C18.9947 2.42362 18.9554 2.40741 18.9144 2.40741L15.2554 2.4065Z" fill="#4F5763"/>
</svg>
